# xmcd
#
# Track frame offsets:
#	180
#	19244
#	33184
#	51784
#	67825
#	81612
#	98562
#	114305
#	131467
#	148573
#	166711
#	185457
#	205251
#	224218
#	237861
#
# Disc length: 3401 seconds
#
# Revision: 1
# Processed by: cddbd v1.5.1PL2 Copyright (c) Steve Scherf et al.
# Submitted via: audiograbber 1.83.01
#
DISCID=cd0d470f
DTITLE=Sound Choice - SC8161
DYEAR=1900
DGENRE=Karaoke Country
TTITLE0=Travis, Randy - It'S Just A Matter Of Time
TTITLE1=Mcbride and The Ride - Hangin' In And Hangin' On 
TTITLE2=Kentucky Headhunters - Rock'N'Roll Angel
TTITLE3=Van Shelton, Ricky - Just As I Am
TTITLE4=Travis, Randy  - Honky Tonk Moon
TTITLE5=Lawrence, Tracy - Sticks And Stones
TTITLE6=Anderson, John - Let Go Of The Stone
TTITLE7=Dean, Billy - I Wanna Take Care Of You 
TTITLE8=Bellamy Brothers - I Could Be Persuaded
TTITLE9=Loveless, Patsy - Night'S Too Long, The
TTITLE10=Dean, Billy - Once In A While
TTITLE11=Alabama - There'S No Way 
TTITLE12=Wariner, Steve - Like A River To The Sea
TTITLE13=Dunn, Holly - There Goes My Heart Again
TTITLE14=Mattea, Kathy - She Came From Fort Worth 
EXTD=
EXTT0=
EXTT1=
EXTT2=
EXTT3=
EXTT4=
EXTT5=
EXTT6=
EXTT7=
EXTT8=
EXTT9=
EXTT10=
EXTT11=
EXTT12=
EXTT13=
EXTT14=
PLAYORDER=
